<?xml version="1.0" standalone="no"?>
<!DOCTYPE svg PUBLIC "-//W3C//DTD SVG 20010904//EN"
 "http://www.w3.org/TR/2001/REC-SVG-20010904/DTD/svg10.dtd">
<svg version="1.0" xmlns="http://www.w3.org/2000/svg"
 width="208.000000pt" height="208.000000pt" viewBox="0 0 208.000000 208.000000"
 preserveAspectRatio="xMidYMid meet">
<metadata>
Created by potrace 1.11, written by Peter Selinger 2001-2013
</metadata>
<g transform="translate(0.000000,208.000000) scale(0.100000,-0.100000)"
fill="#000000" stroke="none">
<path d="M690 2001 l0 -68 -117 -1 c-65 0 -127 -1 -139 -1 -18 -1 -21 -8 -21
-48 -1 -96 3 -89 -60 -88 -32 0 -63 -1 -69 -3 -7 -2 -10 -27 -9 -67 l3 -65
-69 0 -69 0 0 -138 0 -139 -52 0 c-29 0 -61 -1 -71 -2 -16 -1 -17 -23 -15
-348 l3 -348 45 -1 c101 -3 90 14 90 -139 l0 -135 65 0 c45 0 65 -4 66 -12 1
-7 2 -38 3 -68 l1 -55 70 -5 70 -5 -1 -66 -1 -66 126 -1 c69 0 132 -1 139 -1
8 -1 12 -21 12 -66 l0 -65 350 0 350 0 0 65 c0 55 3 65 18 66 9 0 70 1 135 1
132 1 121 -8 118 90 l-1 48 70 0 70 0 0 70 0 70 70 0 70 0 0 138 0 138 65 -2
c36 -1 65 1 66 4 3 20 4 669 1 682 -2 13 -16 15 -68 13 l-64 -3 -1 38 c0 20
-1 83 -1 140 l0 102 -69 0 -69 0 0 68 0 68 -65 -1 c-72 -2 -75 1 -73 70 1 76
13 70 -137 69 l-135 -2 0 69 0 69 -350 0 -350 0 0 -69z m684 -146 c0 -33 3
-62 8 -66 4 -3 66 -5 138 -5 l130 1 0 -70 0 -71 68 1 67 0 3 -137 3 -137 67
-3 67 -3 0 -335 0 -335 -67 0 -68 1 0 -138 0 -138 -70 0 -70 0 0 -69 0 -69
-131 2 c-77 0 -134 -3 -139 -9 -4 -5 -6 -37 -5 -70 l3 -60 -337 0 -336 0 -3
62 -3 63 207 2 207 3 1 65 1 65 67 3 67 3 3 137 3 137 55 1 c30 0 61 2 68 3 8
1 12 21 12 66 l0 64 67 3 68 3 0 63 c1 34 -2 67 -5 73 -4 6 -36 9 -76 7 l-68
-3 -1 -65 -1 -65 -472 -1 c-334 -1 -472 2 -473 10 -1 6 -3 31 -4 56 -1 25 -3
51 -4 58 -1 10 -20 12 -73 10 l-72 -3 -1 -70 0 -70 70 -3 71 -3 -2 -68 -2 -68
56 0 c32 -1 63 -1 70 -2 9 -1 12 -35 12 -136 l0 -135 70 0 71 0 -3 -62 -3 -63
-127 -1 c-111 -1 -128 1 -129 15 -1 9 -2 39 -3 66 l-1 50 -67 3 -67 3 -3 137
-3 137 -68 -1 -67 -1 0 339 0 338 70 0 70 0 0 134 c0 98 3 135 12 138 7 3 33
4 58 3 62 -3 69 5 65 76 -2 40 0 59 8 60 7 1 68 2 137 3 l125 1 3 68 3 67 337
-2 337 -3 -1 -60z m-554 -1174 c3 -1 5 -59 5 -131 l0 -130 -62 0 -63 0 0 128
c0 71 2 131 5 133 4 4 96 4 115 0z m280 -128 l0 -133 -63 0 -62 0 0 125 c0 86
4 128 12 133 6 4 35 7 62 7 l51 0 0 -132z"/>
<path d="M419 1380 c-1 -3 -3 -37 -4 -76 l-3 -70 144 -1 144 0 0 76 0 76 -140
0 c-77 0 -141 -2 -141 -5z"/>
<path d="M1138 1382 l-38 -3 0 -73 0 -73 145 0 145 1 0 73 c0 69 -1 73 -22 74
-81 3 -199 4 -230 1z"/>
<path d="M690 1035 l0 -75 38 -1 c96 -2 235 1 241 5 4 3 7 36 6 73 l-1 68
-142 3 -142 3 0 -76z"/>
</g>
</svg>
